<svg xmlns="http://www.w3.org/2000/svg" xmlns:xlink="http://www.w3.org/1999/xlink" xmlns:lucid="lucid" width="940.72" height="740"><g transform="translate(-39.27749618167002 -20)" lucid:page-tab-id="0_0"><path d="M626.28 66H952c4.42 0 8 3.58 8 8v398c0 4.42-3.58 8-8 8H67.28c-4.42 0-8-3.58-8-8V48c0-4.42 3.58-8 8-8h524c4.42 0 10.58 2.48 13.76 5.55zm-567 0h567" stroke="#333" fill="#fff"/><use xlink:href="#a" transform="matrix(1,0,0,1,67.27749618167002,40) translate(223.5 16.6)"/><use xlink:href="#b" transform="matrix(1,0,0,1,71.27749618167002,74) translate(0 14.4)"/><path d="M220 128c0-4.42 3.58-8 8-8h284c4.42 0 8 3.58 8 8v64c0 4.42-3.58 8-8 8H228c-4.42 0-8-3.58-8-8z" stroke="#333" fill="#fff"/><use xlink:href="#c" transform="matrix(1,0,0,1,220,120) translate(82.79406250000001 45.296875)"/><path d="M220 348c0-4.42 3.58-8 8-8h284c4.42 0 8 3.58 8 8v64c0 4.42-3.58 8-8 8H228c-4.42 0-8-3.58-8-8z" stroke="#333" fill="#fff"/><use xlink:href="#d" transform="matrix(1,0,0,1,220,340) translate(82.79406250000001 45.296875)"/><path d="M370 339V216.88" stroke="#333" fill="none"/><path d="M370.5 339.5h-1v-.5h1z" stroke="#333" stroke-width=".05" fill="#333"/><path d="M370 202.12l4.64 14.26h-9.28z" stroke="#333" fill="#333"/><path d="M627 566h325c4.42 0 8 3.58 8 8v158c0 4.42-3.58 8-8 8H68c-4.42 0-8-3.58-8-8V548c0-4.42 3.58-8 8-8h524c4.42 0 10.58 2.48 13.76 5.55zm-567 0h567" stroke="#333" fill="#fff"/><use xlink:href="#a" transform="matrix(1,0,0,1,67.99999999999994,540) translate(223 16.6)"/><use xlink:href="#e" transform="matrix(1,0,0,1,71.99999999999994,574) translate(0 14.4)"/><path d="M220 608c0-4.42 3.58-8 8-8h284c4.42 0 8 3.58 8 8v64c0 4.42-3.58 8-8 8H228c-4.42 0-8-3.58-8-8z" stroke="#333" fill="#fff"/><use xlink:href="#f" transform="matrix(1,0,0,1,220,600) translate(121.20031250000001 45.296875)"/><path d="M370 599V436.88" stroke="#333" fill="none"/><path d="M370.5 599.5h-1v-.5h1z" stroke="#333" stroke-width=".05" fill="#333"/><path d="M370 422.12l4.64 14.26h-9.28z" stroke="#333" fill="#333"/><path d="M600 348c0-4.42 3.58-8 8-8h284c4.42 0 8 3.58 8 8v64c0 4.42-3.58 8-8 8H608c-4.42 0-8-3.58-8-8z" stroke="#333" fill="#fff"/><use xlink:href="#g" transform="matrix(1,0,0,1,600,340) translate(87.59484375000001 45.296875)"/><path d="M370 599v-97c0-6.63 5.37-12 12-12h356c6.63 0 12-5.37 12-12v-41.12" stroke="#333" fill="none"/><path d="M370.5 599.5h-1v-.5h1z" stroke="#333" stroke-width=".05" fill="#333"/><path d="M750 422.12l4.64 14.26h-9.28z" stroke="#333" fill="#333"/><defs><path fill="#333" d="M30-248c87 1 191-15 191 75 0 78-77 80-158 76V0H30v-248zm33 125c57 0 124 11 124-50 0-59-68-47-124-48v98" id="h"/><path fill="#333" d="M141-36C126-15 110 5 73 4 37 3 15-17 15-53c-1-64 63-63 125-63 3-35-9-54-41-54-24 1-41 7-42 31l-33-3c5-37 33-52 76-52 45 0 72 20 72 64v82c-1 20 7 32 28 27v20c-31 9-61-2-59-35zM48-53c0 20 12 33 32 33 41-3 63-29 60-74-43 2-92-5-92 41" id="i"/><path fill="#333" d="M96-169c-40 0-48 33-48 73s9 75 48 75c24 0 41-14 43-38l32 2c-6 37-31 61-74 61-59 0-76-41-82-99-10-93 101-131 147-64 4 7 5 14 7 22l-32 3c-4-21-16-35-41-35" id="j"/><path fill="#333" d="M143 0L79-87 56-68V0H24v-261h32v163l83-92h37l-77 82L181 0h-38" id="k"/><path fill="#333" d="M177-190C167-65 218 103 67 71c-23-6-38-20-44-43l32-5c15 47 100 32 89-28v-30C133-14 115 1 83 1 29 1 15-40 15-95c0-56 16-97 71-98 29-1 48 16 59 35 1-10 0-23 2-32h30zM94-22c36 0 50-32 50-73 0-42-14-75-50-75-39 0-46 34-46 75s6 73 46 73" id="l"/><path fill="#333" d="M100-194c63 0 86 42 84 106H49c0 40 14 67 53 68 26 1 43-12 49-29l28 8c-11 28-37 45-77 45C44 4 14-33 15-96c1-61 26-98 85-98zm52 81c6-60-76-77-97-28-3 7-6 17-6 28h103" id="m"/><g id="a"><use transform="matrix(0.05,0,0,0.05,0,0)" xlink:href="#h"/><use transform="matrix(0.05,0,0,0.05,12,0)" xlink:href="#i"/><use transform="matrix(0.05,0,0,0.05,22,0)" xlink:href="#j"/><use transform="matrix(0.05,0,0,0.05,31,0)" xlink:href="#k"/><use transform="matrix(0.05,0,0,0.05,40,0)" xlink:href="#i"/><use transform="matrix(0.05,0,0,0.05,50,0)" xlink:href="#l"/><use transform="matrix(0.05,0,0,0.05,60,0)" xlink:href="#m"/></g><path fill="#333" d="M85-194c31 0 48 13 60 33l-1-100h32l1 261h-30c-2-10 0-23-3-31C134-8 116 4 85 4 32 4 16-35 15-94c0-66 23-100 70-100zm9 24c-40 0-46 34-46 75 0 40 6 74 45 74 42 0 51-32 51-76 0-42-9-74-50-73" id="n"/><path fill="#333" d="M115-194c53 0 69 39 70 98 0 66-23 100-70 100C84 3 66-7 56-30L54 0H23l1-261h32v101c10-23 28-34 59-34zm-8 174c40 0 45-34 45-75 0-40-5-75-45-74-42 0-51 32-51 76 0 43 10 73 51 73" id="o"/><path fill="#333" d="M135-143c-3-34-86-38-87 0 15 53 115 12 119 90S17 21 10-45l28-5c4 36 97 45 98 0-10-56-113-15-118-90-4-57 82-63 122-42 12 7 21 19 24 35" id="p"/><path fill="#333" d="M179-190L93 31C79 59 56 82 12 73V49c39 6 53-20 64-50L1-190h34L92-34l54-156h33" id="q"/><path fill="#333" d="M117-194c89-4 53 116 60 194h-32v-121c0-31-8-49-39-48C34-167 62-67 57 0H25l-1-190h30c1 10-1 24 2 32 11-22 29-35 61-36" id="r"/><path fill="#333" d="M114-163C36-179 61-72 57 0H25l-1-190h30c1 12-1 29 2 39 6-27 23-49 58-41v29" id="s"/><g id="b"><use transform="matrix(0.05,0,0,0.05,0,0)" xlink:href="#n"/><use transform="matrix(0.05,0,0,0.05,10,0)" xlink:href="#o"/><use transform="matrix(0.05,0,0,0.05,20,0)" xlink:href="#p"/><use transform="matrix(0.05,0,0,0.05,29,0)" xlink:href="#q"/><use transform="matrix(0.05,0,0,0.05,38,0)" xlink:href="#r"/><use transform="matrix(0.05,0,0,0.05,48,0)" xlink:href="#j"/><use transform="matrix(0.05,0,0,0.05,57,0)" xlink:href="#m"/><use transform="matrix(0.05,0,0,0.05,67,0)" xlink:href="#s"/><use transform="matrix(0.05,0,0,0.05,72.95,0)" xlink:href="#p"/></g><path fill="#24292f" d="M622-1349c296 4 497 117 497 404 0 282-193 424-485 431H353V0H162v-1349h460zm-15 684c195-3 320-88 320-277 0-184-129-255-328-254H353v531h254" id="t"/><path fill="#24292f" d="M615-1102c343 0 484 203 482 560-1 347-147 562-488 562-336 0-475-219-479-562-4-349 156-560 485-560zm-8 989c240 0 301-180 301-429 0-245-55-427-290-427-236 0-299 181-299 427 0 243 61 429 288 429" id="u"/><path fill="#24292f" d="M736-142h380V0H134v-142h422v-1200H267v-142h469v1342" id="v"/><path fill="#24292f" d="M745-142h380V0H143v-142h422v-798H246v-142h499v940zM545-1292v-192h200v192H545" id="w"/><path fill="#24292f" d="M631 20c-350 0-501-215-501-562 0-355 162-560 502-560 250 0 399 118 446 323l-192 14c-23-124-109-196-262-196-242 0-305 171-305 415 1 245 61 427 304 427 151 0 248-77 267-215l190 12C1039-107 883 20 631 20" id="x"/><path fill="#24292f" d="M168 279c222 39 310-114 368-290L66-1082h192c120 299 249 590 362 896 115-301 235-597 351-896h190L705 0c-65 164-130 320-275 396-67 36-177 35-262 18V279" id="y"/><path fill="#24292f" d="M473-1349c438-1 655 221 652 661C1122-268 945-8 532 0H162v-1349h311zm42 1193c308-4 416-205 418-532 2-330-131-509-459-505H353v1037h162" id="z"/><path fill="#24292f" d="M802-711c201 25 350 118 350 331C1152-95 921 0 634 0H162v-1349c401 9 908-74 908 327 0 184-111 275-268 311zm-224-69c174-2 300-51 300-218 0-163-124-198-302-198H353v416h225zM353-153c281-2 612 44 606-244-5-271-329-233-606-234v478" id="A"/><path fill="#24292f" d="M614-1226c-167 1-283 53-283 213 0 183 186 193 334 234 230 63 463 120 463 409 0 286-219 387-518 390C309 23 131-98 79-338l185-37c34 165 149 248 351 246 184-2 324-58 324-238 0-203-207-221-372-266-210-57-422-111-422-377 0-267 201-356 470-360 279-5 430 101 480 324l-188 33c-28-141-121-215-293-213" id="B"/><path fill="#24292f" d="M706-1102c241 0 344 136 343 381V0H868v-695c1-168-57-273-220-268-190 6-283 138-283 336V0H185c-3-360 6-732-6-1082h170c4 54 7 126 8 185h3c63-121 164-204 346-205" id="C"/><path fill="#24292f" d="M617-1102c355 0 481 238 477 599H322c5 222 84 388 301 388 144 0 244-59 284-166l158 45C1002-72 854 20 623 20c-342 0-490-220-490-568 0-346 151-554 484-554zm291 461c-18-192-90-328-289-328-194 0-287 128-295 328h584" id="D"/><path fill="#24292f" d="M839-1102c70 0 148 7 206 17v167c-112-18-268-36-363 15-129 69-208 203-208 395V0H294c-10-367 32-789-52-1082h171c21 75 41 161 48 250h5c67-152 152-270 373-270" id="E"/><g id="c"><use transform="matrix(0.0078125,0,0,0.0078125,0,0)" xlink:href="#t"/><use transform="matrix(0.0078125,0,0,0.0078125,9.6015625,0)" xlink:href="#u"/><use transform="matrix(0.0078125,0,0,0.0078125,19.203125,0)" xlink:href="#v"/><use transform="matrix(0.0078125,0,0,0.0078125,28.8046875,0)" xlink:href="#w"/><use transform="matrix(0.0078125,0,0,0.0078125,38.40625,0)" xlink:href="#x"/><use transform="matrix(0.0078125,0,0,0.0078125,48.0078125,0)" xlink:href="#y"/><use transform="matrix(0.0078125,0,0,0.0078125,57.609375,0)" xlink:href="#z"/><use transform="matrix(0.0078125,0,0,0.0078125,67.2109375,0)" xlink:href="#A"/><use transform="matrix(0.0078125,0,0,0.0078125,76.8125,0)" xlink:href="#B"/><use transform="matrix(0.0078125,0,0,0.0078125,86.4140625,0)" xlink:href="#y"/><use transform="matrix(0.0078125,0,0,0.0078125,96.015625,0)" xlink:href="#C"/><use transform="matrix(0.0078125,0,0,0.0078125,105.6171875,0)" xlink:href="#x"/><use transform="matrix(0.0078125,0,0,0.0078125,115.21875,0)" xlink:href="#D"/><use transform="matrix(0.0078125,0,0,0.0078125,124.8203125,0)" xlink:href="#E"/></g><path fill="#24292f" d="M1034 0L896-382H333L196 0H0l510-1349h217L1228 0h-194zM847-531c-77-225-157-447-231-674-69 231-154 451-232 674h463" id="F"/><path fill="#24292f" d="M865-914c-3-187-2-380-2-570h180v1261c0 76 1 155 6 223H877c-8-49-9-116-10-174h-5C801-44 708 26 530 26c-135 0-234-46-297-139s-95-232-95-419c0-377 131-566 392-566 176 0 271 63 335 184zm-286-51c-222 0-255 197-255 427 0 229 31 425 253 425 237 0 286-195 286-441 0-238-52-411-284-411" id="G"/><path fill="#24292f" d="M873-819c-18-114-119-146-250-146-163 0-245 50-245 151 0 151 170 148 294 185 182 54 388 94 388 320 0 240-189 325-439 329-245 4-410-69-454-268l159-31c24 133 136 168 295 165 144-2 270-31 270-171 0-164-195-160-331-202-167-52-350-87-350-299 0-218 173-315 413-313 220 2 373 77 412 260" id="H"/><path fill="#24292f" d="M891-1484c-201 251-362 514-362 954 0 441 161 704 362 955H701C500 176 342-90 342-532c0-440 159-704 359-952h190" id="I"/><path fill="#24292f" d="M528-1484c201 248 357 511 357 952 0 442-156 709-357 957H336C537 174 700-89 700-530c0-440-163-703-364-954h192" id="J"/><g id="d"><use transform="matrix(0.0078125,0,0,0.0078125,0,0)" xlink:href="#F"/><use transform="matrix(0.0078125,0,0,0.0078125,9.6015625,0)" xlink:href="#G"/><use transform="matrix(0.0078125,0,0,0.0078125,19.203125,0)" xlink:href="#G"/><use transform="matrix(0.0078125,0,0,0.0078125,28.8046875,0)" xlink:href="#z"/><use transform="matrix(0.0078125,0,0,0.0078125,38.40625,0)" xlink:href="#A"/><use transform="matrix(0.0078125,0,0,0.0078125,48.0078125,0)" xlink:href="#B"/><use transform="matrix(0.0078125,0,0,0.0078125,57.609375,0)" xlink:href="#y"/><use transform="matrix(0.0078125,0,0,0.0078125,67.2109375,0)" xlink:href="#C"/><use transform="matrix(0.0078125,0,0,0.0078125,76.8125,0)" xlink:href="#x"/><use transform="matrix(0.0078125,0,0,0.0078125,86.4140625,0)" xlink:href="#D"/><use transform="matrix(0.0078125,0,0,0.0078125,96.015625,0)" xlink:href="#E"/><use transform="matrix(0.0078125,0,0,0.0078125,105.6171875,0)" xlink:href="#H"/><use transform="matrix(0.0078125,0,0,0.0078125,115.21875,0)" xlink:href="#I"/><use transform="matrix(0.0078125,0,0,0.0078125,124.8203125,0)" xlink:href="#J"/></g><path fill="#333" d="M210-169c-67 3-38 105-44 169h-31v-121c0-29-5-50-35-48C34-165 62-65 56 0H25l-1-190h30c1 10-1 24 2 32 10-44 99-50 107 0 11-21 27-35 58-36 85-2 47 119 55 194h-31v-121c0-29-5-49-35-48" id="K"/><path fill="#333" d="M24-231v-30h32v30H24zM24 0v-190h32V0H24" id="L"/><g id="e"><use transform="matrix(0.05,0,0,0.05,0,0)" xlink:href="#K"/><use transform="matrix(0.05,0,0,0.05,14.950000000000001,0)" xlink:href="#i"/><use transform="matrix(0.05,0,0,0.05,24.950000000000003,0)" xlink:href="#L"/><use transform="matrix(0.05,0,0,0.05,28.900000000000002,0)" xlink:href="#r"/></g><path fill="#24292f" d="M904-1102c199 0 220 177 220 381V0H956v-686c-3-114 0-215-60-264-70-33-125-4-158 71-26 56-39 140-39 252V0H531v-686c-3-114-1-215-61-264-78-41-136 24-157 84-24 69-39 159-39 259V0H105c-3-360 6-732-6-1082h149c6 50 3 123 8 175 36-100 83-195 216-195 135 0 166 79 196 196 42-105 93-196 236-196" id="M"/><path fill="#24292f" d="M1000-272c3 95 12 159 101 161 21 0 41-3 59-7V-6c-44 10-86 16-139 16-141 2-191-84-197-217h-6C748-76 648 20 446 20c-207 0-318-120-318-322 0-266 194-348 454-354l236-4c12-191-40-305-222-305-140 0-220 47-232 172l-188-17c33-204 181-292 423-292 255 0 401 118 401 364v466zm-683-27c0 109 63 184 175 182 166-3 259-96 306-217 24-65 20-120 20-200-232 7-501-28-501 235" id="N"/><g id="f"><use transform="matrix(0.0078125,0,0,0.0078125,0,0)" xlink:href="#M"/><use transform="matrix(0.0078125,0,0,0.0078125,9.6015625,0)" xlink:href="#N"/><use transform="matrix(0.0078125,0,0,0.0078125,19.203125,0)" xlink:href="#w"/><use transform="matrix(0.0078125,0,0,0.0078125,28.8046875,0)" xlink:href="#C"/><use transform="matrix(0.0078125,0,0,0.0078125,38.40625,0)" xlink:href="#I"/><use transform="matrix(0.0078125,0,0,0.0078125,48.0078125,0)" xlink:href="#J"/></g><path fill="#24292f" d="M709-1193V0H519v-1193H76v-156h1076v156H709" id="O"/><path fill="#24292f" d="M648-963c-190 6-283 138-283 336V0H185v-1484h181c-2 197 6 404-9 587h3c62-120 159-205 339-205 242 0 351 135 350 381V0H868v-695c1-168-57-273-220-268" id="P"/><g id="g"><use transform="matrix(0.0078125,0,0,0.0078125,0,0)" xlink:href="#F"/><use transform="matrix(0.0078125,0,0,0.0078125,9.6015625,0)" xlink:href="#G"/><use transform="matrix(0.0078125,0,0,0.0078125,19.203125,0)" xlink:href="#G"/><use transform="matrix(0.0078125,0,0,0.0078125,28.8046875,0)" xlink:href="#O"/><use transform="matrix(0.0078125,0,0,0.0078125,38.40625,0)" xlink:href="#u"/><use transform="matrix(0.0078125,0,0,0.0078125,48.0078125,0)" xlink:href="#B"/><use transform="matrix(0.0078125,0,0,0.0078125,57.609375,0)" xlink:href="#x"/><use transform="matrix(0.0078125,0,0,0.0078125,67.2109375,0)" xlink:href="#P"/><use transform="matrix(0.0078125,0,0,0.0078125,76.8125,0)" xlink:href="#D"/><use transform="matrix(0.0078125,0,0,0.0078125,86.4140625,0)" xlink:href="#M"/><use transform="matrix(0.0078125,0,0,0.0078125,96.015625,0)" xlink:href="#D"/><use transform="matrix(0.0078125,0,0,0.0078125,105.6171875,0)" xlink:href="#I"/><use transform="matrix(0.0078125,0,0,0.0078125,115.21875,0)" xlink:href="#J"/></g></defs></g></svg>